<?xml version="1.0" encoding="UTF-8" standalone="no"?>
<!-- Created with Inkscape (http://www.inkscape.org/) -->

<svg
   version="1.1"
   id="svg1"
   width="465.29199"
   height="53.98"
   viewBox="0 0 465.29199 53.98"
   sodipodi:docname="Quasi_Institute_Logo (1).pdf"
   xmlns:inkscape="http://www.inkscape.org/namespaces/inkscape"
   xmlns:sodipodi="http://sodipodi.sourceforge.net/DTD/sodipodi-0.dtd"
   xmlns="http://www.w3.org/2000/svg"
   xmlns:svg="http://www.w3.org/2000/svg">
  <defs
     id="defs1" />
  <sodipodi:namedview
     id="namedview1"
     pagecolor="#ffffff"
     bordercolor="#000000"
     borderopacity="0.25"
     inkscape:showpageshadow="2"
     inkscape:pageopacity="0.0"
     inkscape:pagecheckerboard="0"
     inkscape:deskcolor="#d1d1d1">
    <inkscape:page
       x="0"
       y="0"
       inkscape:label="1"
       id="page1"
       width="465.29199"
       height="53.98"
       margin="0"
       bleed="0" />
  </sodipodi:namedview>
  <g
     id="g1"
     inkscape:groupmode="layer"
     inkscape:label="1">
    <path
       id="path1"
       d="M 0,0 H 348.969 V 40.485 H 0 Z"
       style="fill:#000000;fill-opacity:1;fill-rule:nonzero;stroke:none"
       transform="matrix(1.3333333,0,0,-1.3333333,0,53.98)" />
    <path
       id="path2"
       d="m 17.237031,-0.07164063 c 0.105469,0.78515625 0.328125,1.57031253 0.398438,2.35546873 0.386718,2.0390625 1.03125,4.6054688 3.890625,4.6054688 h 0.28125 C 24.877656,6.4205469 25.5925,2.7057031 25.5925,0.50257812 v -0.2578125 c 0,-0.17578125 0,-0.38671875 -0.175781,-0.38671875 -0.222657,0 -0.175782,0.31640625 -0.222657,0.421875 C 24.983125,1.8150781 23.705781,2.9283594 22.205781,3.1041406 h -0.257812 c -2.390625,0 -2.964844,-1.96875 -3.785157,-3.50390623 5.074219,-1.64062497 7.21875,-6.91406247 7.21875,-11.74218737 0,-4.171875 -1.359375,-8.414063 -5.003906,-10.921875 -1.921875,-1.277344 -4.3125,-1.886719 -6.667969,-1.886719 -6.3164058,0 -11.6718745,4.3125 -11.6718745,12.808594 0,3.2578124 0.890625,6.6093749 3.1054687,9.0351561 2.1328125,2.35546877 5.3554688,3.50390627 8.5312498,3.50390627 h 0.5625 c 1.042969,-0.046875 2.003906,-0.2578125 3,-0.46875 z m 0.398438,-1.60546877 c -0.46875,-1.640625 -1.828125,-3.6796875 -3.925782,-3.6796875 -1.675781,0 -2.964843,1.3242188 -2.964843,2.9296875 v 0.2109375 c 0.03516,0.46875 0.210937,0.890625 0.457031,1.28906252 C 6.74875,-2.5325781 5.7409375,-7.7825781 5.7409375,-12.071641 c 0,-3.996093 0.46875,-7.992187 3.890625,-10.734375 1.1132815,-0.785156 2.4374995,-1.21875 3.8203125,-1.289062 h 0.292969 c 2.285156,0 4.417968,1.136719 5.777343,3 1.863282,2.601562 2.144532,5.953125 2.144532,9.023437 0,3.0703129 -0.398438,6.4687504 -2.390625,8.9296879 C 18.8425,-2.6028906 18.28,-2.0052344 17.635469,-1.6771094 Z m -0.644532,0.421875 c -1.03125,0.39843752 -2.003906,0.82031252 -3.140625,0.82031252 -1.21875,0 -2.285156,-0.92578122 -2.285156,-2.09765622 0,-1.21875 1.171875,-2.0039063 2.25,-2.0039063 1.886719,0 2.636719,1.5703125 3.175781,3.28125 z M 28.645234,-24.528672 v 1.042969 h 2.953125 c 0.363282,0 0.679688,0.03516 0.679688,0.457031 v 14.2851564 c 0,4.5351562 2.25,9.14062497 10.277344,9.14062497 5.074218,0 8.179687,-4.00781247 8.179687,-8.92968747 0,-0.6445313 -0.03516,-1.2890625 -0.03516,-1.9218749 v -12.175781 c 0,-0.785157 1.640625,-0.855469 2.894531,-0.855469 h 0.75 v -1.042969 h -8.109375 v 1.042969 h 1.078125 c 1.277344,0 2.566406,0.07031 2.566406,0.855469 v 14.8828121 c -0.246093,3.4570313 -1.96875,7.10156252 -7.851562,7.10156252 -1.605469,0 -3.28125,-0.60937502 -4.429688,-1.74609372 -1.570312,-1.6054688 -1.640625,-4.03125 -1.640625,-6.1757813 V -23.028672 c 0,-0.421875 0.386719,-0.457031 0.785157,-0.457031 h 2.859375 v -1.042969 z m 28.010743,23.4609376 v 1.03125002 h 7.394531 V -1.0677344 c -0.960938,0 -3.035156,-0.035156 -3.035156,-0.609375 0,-0.3984375 0.316406,-0.9257812 0.46875,-1.359375 l 1.605468,-4.2773437 c 0.140625,-0.2929688 0.140625,-0.5039063 0.527344,-0.5039063 h 8.425781 c 0.398438,0 0.433594,0.2460938 0.574219,0.5742188 l 0.46875,1.2421875 c 0.597656,1.6054687 1.136719,3.2460937 1.816406,4.8164062 l -3.246093,0.082031 v 1.06640622 H 82.003633 V -1.0677344 h -2.566406 c -0.890625,0 -0.890625,-0.8203125 -1.21875,-1.5351562 l -6,-15.9609374 c -0.597657,-1.675781 -1.242188,-3.351563 -1.886719,-5.027344 l -0.351563,-0.972656 c -0.152343,-0.28125 -0.152343,-0.527344 -0.644531,-0.527344 -0.503906,0 -0.503906,0.246094 -0.644531,0.527344 l -0.363281,0.972656 c -2.238282,5.707031 -4.347657,11.484375 -6.492188,17.2382814 l -1.253906,3.3867187 c -0.386719,0.75 -0.246094,1.6054688 -1.605469,1.7460938 -0.785156,0.1523437 -1.535156,0.1523437 -2.320312,0.1523437 z m 6.996093,-7.78125 4.183594,-11.1093746 4.171875,11.1093746 z m 23.63086,6.6679688 c 0.574218,0.46875 1.078125,0.9257812 1.722656,1.32421872 1.570312,0.85546875 3.457031,1.25390625 5.238281,1.25390625 1.898438,0 3.820313,-0.609375 5.179688,-1.96874997 1.324215,-1.359375 2.003905,-3.3164063 2.003905,-5.25 v -0.070312 c 0,-3.7851554 -2.472655,-6.4218744 -6.246093,-7.3828134 l -2.578125,-0.644531 c -2.285156,-0.539062 -4.957031,-1.464843 -4.957031,-4.710937 0,-2.894531 2.320312,-4.324219 4.746094,-4.324219 3.75,0 6.457031,2.648438 6.996093,6.960938 0.07031,0.28125 0,0.644532 0.503907,0.644532 0.316405,0 0.492185,-0.07031 0.492185,-0.398438 v -7.816406 c 0,-0.140625 0,-0.316406 -0.14062,-0.351563 h -0.10547 c -0.328127,0 -1.359377,1.710938 -1.898439,2.566407 -1.535156,-1.78125 -3.632813,-2.601563 -5.988281,-2.601563 -3.46875,0 -7.066407,1.957031 -7.066407,6.925781 0,2.707032 1.710938,5.0625 4.136719,6.175782 0.679688,0.28125 1.359375,0.421875 2.074219,0.609375 l 1.816406,0.421875 c 0.996094,0.246093 2.144531,0.433593 3.035156,0.8554679 1.570313,0.7851562 2.707032,2.4960937 2.707032,4.2890625 0,2.9648437 -1.851563,5.02734372 -4.816407,5.02734372 -3.492187,0 -7.171875,-1.74609372 -7.886718,-5.81250002 -0.07031,-0.3632812 -0.105469,-0.75 -0.140625,-1.1132812 v -0.2460938 c 0,-0.28125 -0.105469,-0.3984375 -0.433594,-0.3984375 -0.351563,0 -0.492188,0.082031 -0.492188,0.3984375 v 7.78125002 c 0,0.17578125 0,0.43359375 0.210938,0.43359375 0.28125,0 1.464844,-1.72265627 1.886719,-2.57812547 z m 17.18555,-22.3476564 v 1.042969 h 3.5039 l 0.2461,0.175781 0.0703,0.386719 v 21.2460936 l -0.0703,0.421875 -0.2461,0.1523438 h -3.5039 v 1.06640622 h 11.32031 V -1.0677344 h -3.50391 l -0.24609,-0.1875 -0.0703,-0.3867187 V -22.876328 l 0.0703,-0.433594 0.24609,-0.140625 h 3.50391 v -1.078125 z m 25.57324,0 v 1.042969 h 3.5039 l 0.2461,0.175781 0.0703,0.386719 v 21.2460936 l -0.0703,0.421875 -0.2461,0.1523438 h -3.5039 v 1.06640622 h 11.32031 V -1.0677344 h -3.50391 l -0.24609,-0.1875 -0.0703,-0.3867187 V -22.876328 l 0.0703,-0.433594 0.24609,-0.140625 h 3.50391 v -1.078125 z m 13.55273,0 v 1.042969 h 3.63282 v 21.5976561 c 0,0.75 -1.42969,0.8203125 -2.63672,0.8203125 h -0.9961 v 1.03125002 h 8.27344 V -1.0677344 h -0.89062 c -1.32422,0 -2.75391,-0.070312 -2.75391,-0.8203125 l 0.0469,-21.0351561 c 1.3125,2.179687 3.07032,4.21875 4.59375,6.257812 3.9375,5.238282 7.82813,10.5234379 11.75391,15.80859412 0.31641,0.421875 0.42188,0.8203125 1.06641,0.8203125 0.35156,0 0.46875,-0.10546875 0.46875,-0.46875 V -22.559922 c 0,-0.820312 1.38281,-0.925781 2.60156,-0.925781 h 1.03125 v -1.042969 h -8.27344 v 1.042969 h 1.13672 c 1.25391,0 2.49609,0.105469 2.49609,0.925781 v 16.5585939 l -13.34765,-17.9882809 -0.42188,-0.46875 -0.67968,-0.07031 z m 31.54102,22.3476564 c 0.57422,0.46875 1.07812,0.9257812 1.72265,1.32421872 1.57032,0.85546875 3.45704,1.25390625 5.23829,1.25390625 1.89843,0 3.82031,-0.609375 5.17968,-1.96874997 1.32422,-1.359375 2.00391,-3.3164063 2.00391,-5.25 v -0.070312 c 0,-3.7851554 -2.47266,-6.4218744 -6.24609,-7.3828124 l -2.57813,-0.644532 c -2.28516,-0.539061 -4.95703,-1.464843 -4.95703,-4.710936 0,-2.894532 2.32031,-4.324219 4.74609,-4.324219 3.75,0 6.45703,2.648437 6.9961,6.960937 0.0703,0.28125 0,0.644532 0.5039,0.644532 0.31641,0 0.49219,-0.07031 0.49219,-0.398438 v -7.816406 c 0,-0.140625 0,-0.316406 -0.14062,-0.351563 h -0.10547 c -0.32813,0 -1.35938,1.710938 -1.89844,2.566407 -1.53516,-1.78125 -3.63281,-2.601563 -5.98828,-2.601563 -3.46875,0 -7.06641,1.957031 -7.06641,6.925781 0,2.707032 1.71094,5.0625 4.13672,6.175782 0.67969,0.28125 1.35938,0.421875 2.07422,0.609375 l 1.81641,0.421875 c 0.99609,0.246093 2.14453,0.433593 3.03515,0.8554679 1.57031,0.7851562 2.70703,2.4960937 2.70703,4.2890625 0,2.9648437 -1.85156,5.02734372 -4.8164,5.02734372 -3.49219,0 -7.17188,-1.74609372 -7.88672,-5.81250002 -0.0703,-0.3632812 -0.10547,-0.75 -0.14063,-1.1132812 v -0.2460938 c 0,-0.28125 -0.10547,-0.3984375 -0.43359,-0.3984375 -0.35156,0 -0.49219,0.082031 -0.49219,0.3984375 v 7.78125002 c 0,0.17578125 0,0.43359375 0.21094,0.43359375 0.28125,0 1.46484,-1.72265627 1.88672,-2.57812547 z m 18.07617,-22.1953124 -0.5625,7.957031 h 0.92578 c 0.21094,-3.574219 0.42188,-6.925781 5.74219,-6.925781 h 2.25 c 0.46875,0 0.60937,0.105469 0.60937,0.539062 v 21.1992191 c 0,0.46875 -0.39843,0.5390625 -0.82031,0.5390625 h -4.32422 v 1.03125002 h 13.95703 V -1.0677344 h -4.34765 c -0.4336,0 -0.78516,-0.070312 -0.78516,-0.5390625 V -22.806016 c 0,-0.433593 0.14063,-0.539062 0.60938,-0.539062 h 2.23828 c 2.17969,0 4.71094,0.46875 5.28515,3.386719 0.29297,1.148437 0.39844,2.355468 0.46875,3.539062 h 0.92579 l -0.57422,-7.957031 z m 24.53613,-0.152344 v 1.042969 h 3.50391 l 0.24609,0.175781 0.0703,0.386719 v 21.2460936 l -0.0703,0.421875 -0.24609,0.1523438 h -3.50391 v 1.06640622 h 11.32032 V -1.0677344 h -3.50391 l -0.24609,-0.1875 -0.0703,-0.3867187 V -22.876328 l 0.0703,-0.433594 0.24609,-0.140625 h 3.50391 v -1.078125 z m 14.25293,0.152344 -0.5625,7.957031 h 0.92578 c 0.21094,-3.574219 0.42188,-6.925781 5.74219,-6.925781 h 2.25 c 0.46875,0 0.60938,0.105469 0.60938,0.539062 v 21.1992191 c 0,0.46875 -0.39844,0.5390625 -0.82032,0.5390625 h -4.32421 v 1.03125002 h 13.95703 V -1.0677344 h -4.34766 c -0.43359,0 -0.78516,-0.070312 -0.78516,-0.5390625 V -22.806016 c 0,-0.433593 0.14063,-0.539062 0.60938,-0.539062 h 2.23828 c 2.17969,0 4.71094,0.46875 5.28516,3.386719 0.29297,1.148437 0.39843,2.355468 0.46875,3.539062 h 0.92578 l -0.57422,-7.957031 z m 24.72364,-0.152344 v 1.042969 h 2.95312 c 0.36328,0 0.67969,0.03516 0.67969,0.457031 v 14.2851564 c 0,4.5351562 2.25,9.14062497 10.27734,9.14062497 5.07422,0 8.17969,-4.00781247 8.17969,-8.92968747 0,-0.6445313 -0.0352,-1.2890625 -0.0352,-1.9218749 v -12.175781 c 0,-0.785157 1.64063,-0.855469 2.89453,-0.855469 h 0.75 v -1.042969 h -8.10937 v 1.042969 h 1.07812 c 1.27735,0 2.56641,0.07031 2.56641,0.855469 v 14.8828121 c -0.24609,3.4570313 -1.96875,7.10156252 -7.85156,7.10156252 -1.60547,0 -3.28125,-0.60937502 -4.42969,-1.74609372 -1.57031,-1.6054688 -1.64062,-4.03125 -1.64062,-6.1757813 V -23.028672 c 0,-0.421875 0.38671,-0.457031 0.78515,-0.457031 h 2.85938 v -1.042969 z m 28.79589,0.152344 -0.5625,7.957031 h 0.92579 c 0.21093,-3.574219 0.42187,-6.925781 5.74218,-6.925781 h 2.25 c 0.46875,0 0.60938,0.105469 0.60938,0.539062 v 21.1992191 c 0,0.46875 -0.39844,0.5390625 -0.82031,0.5390625 h -4.32422 v 1.03125002 h 13.95703 V -1.0677344 h -4.34766 c -0.43359,0 -0.78515,-0.070312 -0.78515,-0.5390625 V -22.806016 c 0,-0.433593 0.14062,-0.539062 0.60937,-0.539062 h 2.23828 c 2.17969,0 4.71094,0.46875 5.28516,3.386719 0.29297,1.148437 0.39844,2.355468 0.46875,3.539062 h 0.92578 l -0.57422,-7.957031 z m 24.72364,-0.08203 v 1.042968 h 3.3164 l 0.2461,0.175782 0.0703,0.398437 v 21.1640626 l -0.0703,0.421875 -0.2461,0.1523438 h -3.3164 v 1.06640622 h 20.55468 l 1.21875,-9.14062502 h -0.9375 c -0.28125,2.0390625 -0.49218,4.3945313 -1.88671,6.0351563 -1.64063,2.0039062 -4.32422,2.0742187 -6.71485,2.0742187 h -4.24219 c -0.43359,0 -0.71484,-0.035156 -0.71484,-0.5390625 0,-0.140625 0.0352,-0.28125 0.0352,-0.3984375 V -12.212266 h 2.35547 c 2.03906,0 3.71484,0.398438 3.71484,3.7500004 v 0.4335937 h 0.92578 v -9.3867191 h -0.92578 v 0.421875 c 0,0.960938 -0.0703,1.933594 -0.64453,2.71875 -0.71485,0.925782 -1.9336,1.03125 -3.07031,1.03125 h -2.35547 v -9.316406 c 0,-0.105469 -0.0352,-0.246094 -0.0352,-0.398437 0,-0.421875 0.38672,-0.457032 0.75,-0.457032 h 4.67578 c 2.70703,0 5.4961,0.28125 6.59766,3.855469 0.29297,0.996094 0.39844,2.027344 0.5039,3.070313 h 0.92579 l -0.82032,-7.96875 z m 0,0"
       style="fill:#ffffff;fill-opacity:1;fill-rule:nonzero;stroke:none"
       aria-label="QUASIINSTITUTE"
       transform="matrix(1.3333333,0,0,1.3333333,10.626667,43.353333)" />
  </g>
</svg>
